<svg xmlns="http://www.w3.org/2000/svg" viewBox="0 0 64 64" role="img" aria-label="Potato favicon">
  <path
    fill="#b8793f"
    d="M47.3 10.9c7.7 5.2 11.3 15.7 8.2 25.4-3.7 11.8-16.2 20.1-29.2 17.4C14 51.2 6.6 40.1 8.9 28.5 11.3 16.7 21.5 8.2 33.8 7.2c5-.4 9.7 1.1 13.5 3.7Z"
  />
  <path
    fill="#d29a5d"
    d="M45.4 13.7c6.2 4.2 9.1 12.9 6.5 20.8-3.1 9.7-13.7 16.6-24.6 14.4-10.1-2.1-16.2-11.1-14.2-20.7 2-9.7 10.5-16.8 20.7-17.6 4.3-.3 8.3.9 11.6 3.1Z"
  />
  <path
    fill="#8f572c"
    d="M24.5 24.6c1.6.4 2.5 1.9 2.1 3.3-.3 1.4-1.8 2.2-3.4 1.8-1.5-.4-2.5-1.9-2.1-3.3.4-1.4 1.9-2.2 3.4-1.8ZM39.8 18.9c1.3.3 2.1 1.6 1.8 2.8-.3 1.1-1.6 1.8-2.9 1.5-1.3-.3-2.1-1.6-1.8-2.8.3-1.1 1.6-1.8 2.9-1.5ZM39.9 37.1c1.8.4 2.9 2.1 2.5 3.7-.4 1.5-2.1 2.5-3.9 2.1-1.8-.4-2.9-2.1-2.5-3.7.4-1.6 2.1-2.5 3.9-2.1ZM29.8 41.9c1.1.3 1.8 1.3 1.5 2.3-.2.9-1.3 1.5-2.4 1.2-1.1-.3-1.8-1.3-1.5-2.3.2-.9 1.3-1.5 2.4-1.2ZM18.6 35.2c1.2.3 2 1.4 1.7 2.5-.3 1-1.4 1.6-2.7 1.3-1.2-.3-2-1.4-1.7-2.5.3-1 1.4-1.6 2.7-1.3Z"
  />
  <path
    fill="#e2b078"
    d="M22.2 17.8c4.2-3.2 9.7-4.7 15.3-3.9 1.2.2 1.3 1.9.1 2.2-5.9 1.4-10.6 4.2-14.1 8.4-.7.9-2.1.2-1.8-.9.2-1.1.1-3.6.5-5.8Z"
    opacity=".45"
  />
</svg>
